<svg id="Layer_1" data-name="Layer 1" xmlns="http://www.w3.org/2000/svg" xmlns:xlink="http://www.w3.org/1999/xlink" viewBox="0 0 100.8 118.08"><defs><style>.cls-1{fill:url(#linear-gradient);}.cls-2{fill:url(#linear-gradient-2);}.cls-3{fill:url(#linear-gradient-3);}.cls-4{fill:url(#linear-gradient-4);}.cls-5{fill:url(#linear-gradient-5);}.cls-6{fill:url(#linear-gradient-6);}</style><linearGradient id="linear-gradient" x1="87.58" y1="52.48" x2="36.34" y2="75.78" gradientTransform="translate(10.34 -46.91) scale(1.14 1.68)" gradientUnits="userSpaceOnUse"><stop offset="0.3" stop-color="#fff"/><stop offset="0.57" stop-color="#ebecec"/><stop offset="0.92" stop-color="#babcbf"/><stop offset="1" stop-color="#9fa1a4"/></linearGradient><linearGradient id="linear-gradient-2" x1="29.56" y1="1.67" x2="29.56" y2="58.4" gradientTransform="matrix(1, 0, 0, 1, 0, 0)" xlink:href="#linear-gradient"/><linearGradient id="linear-gradient-3" x1="50.44" y1="0.25" x2="50.44" y2="117.84" gradientUnits="userSpaceOnUse"><stop offset="0" stop-color="#f37256"/><stop offset="0.1" stop-color="#f26b50"/><stop offset="0.25" stop-color="#f2674d"/><stop offset="0.26" stop-color="#f2654c"/><stop offset="0.33" stop-color="#f0523e"/><stop offset="0.41" stop-color="#ef4737"/><stop offset="0.5" stop-color="#ef4334"/><stop offset="0.51" stop-color="#ed4435"/><stop offset="0.58" stop-color="#da4b3d"/><stop offset="0.66" stop-color="#cf4f42"/><stop offset="0.75" stop-color="#cb5044"/><stop offset="1" stop-color="#c3202c"/></linearGradient><linearGradient id="linear-gradient-4" x1="69.72" y1="0.07" x2="69.72" y2="117.42" xlink:href="#linear-gradient-3"/><linearGradient id="linear-gradient-5" x1="29.68" y1="1.94" x2="29.68" y2="97.39" gradientUnits="userSpaceOnUse"><stop offset="0.19" stop-color="#fff"/><stop offset="1" stop-color="#9fa1a4"/></linearGradient><linearGradient id="linear-gradient-6" x1="53.31" y1="1.94" x2="53.31" y2="97.39" xlink:href="#linear-gradient-5"/></defs><title>Logo</title><rect class="cls-1" x="32.09" y="49.89" width="22" height="71.95" transform="matrix(0.56, -0.83, 0.83, 0.56, -52.24, 74.02)"/><rect class="cls-2" x="19.92" y="15.73" width="19.29" height="42.95"/><path class="cls-3" d="M59,97.88A38.86,38.86,0,0,1,20.13,59c0-.33,0-.65,0-1V15.49a58.34,58.34,0,1,0,80.09,84.79L86.46,86.5A38.72,38.72,0,0,1,59,97.88Z"/><path class="cls-4" d="M86.46,31.55l13.78-13.78a58.42,58.42,0,0,0-61-13.65V25.58a38.87,38.87,0,0,1,47.26,6Z"/><path class="cls-5" d="M20.15,15.49V58.05c0-.46.06-.91.08-1.37l0-.47c0-.72.13-1.44.22-2.15,0-.14,0-.28.05-.42.1-.73.22-1.45.37-2.17l.06-.34c.15-.74.33-1.48.53-2.2l.06-.25c.21-.76.44-1.51.7-2.26a.56.56,0,0,1,0-.12A39,39,0,0,1,39.2,25.58V4.12A58.48,58.48,0,0,0,20.15,15.49Z"/><path class="cls-6" d="M73,73A19.8,19.8,0,0,1,39.2,59V25.6A39,39,0,0,0,22.29,46.3a.56.56,0,0,0,0,.12c-.26.75-.49,1.5-.7,2.26l-.06.25c-.2.72-.38,1.46-.53,2.2l-.06.34c-.15.72-.27,1.44-.37,2.17,0,.14-.22,1.85-.27,2.57l0,.47c0,.78-.08,1.56-.08,2.34A38.85,38.85,0,0,0,86.46,86.5Z"/></svg>